<?xml version="1.0" encoding="UTF-8"?><svg id="adobe-portfolio" xmlns="http://www.w3.org/2000/svg" viewBox="0 0 512.01 499.2"><defs><style>.cls-1{isolation:isolate;opacity:.15;}.cls-1,.cls-2,.cls-3{stroke-width:0px;}.cls-1,.cls-3{fill:#fff;}</style></defs><path class="cls-2" d="m93.87,0h326.02c50.66,0,92.12,41.45,92.12,92.12v314.96c0,50.66-41.45,92.12-92.12,92.12H92.12c-50.66,0-92.12-41.45-92.12-92.12V93.87C0,42.13,42.13,0,93.87,0"/><path class="cls-2" d="m98.13,21.33h317.48c41.45,0,75.05,33.6,75.05,75.05v306.43c0,41.45-33.6,75.05-75.05,75.05H96.38c-41.45,0-75.05-33.6-75.05-75.05V98.13c0-42.67,34.13-76.8,76.8-76.8"/><path class="cls-3" d="m130.88,134.91c0-1.3.43-2.38,2.17-2.38,13.66-.65,33.61-1.08,54.43-1.08,58.55,0,84.14,32.1,84.14,73.3,0,53.78-38.82,76.77-86.52,76.77-8.02,0-10.84-.43-16.48-.43v81.32c0,1.73-.65,2.39-2.38,2.39h-32.74c-1.74,0-2.38-.65-2.38-2.39v-227.48h-.22l-.02-.02Zm37.73,112.33c4.99.43,8.67.43,17.13.43,24.72,0,47.93-8.67,47.93-42.29,0-26.89-16.48-40.55-44.67-40.55-8.46,0-16.48.43-20.17.65v81.75h-.22Zm123.83-13.6h19.5v128.78c0,1.29.64,2.36,2.36,2.36h32.78c1.93,0,2.36-1.07,2.36-2.36v-128.78h27.21c1.71-.21,2.14-.64,2.14-2.36v-28.71c0-1.29-.43-1.71-2.14-1.71h-27.21v-10.71c0-16.71,6-25.28,18-25.28,2.57,0,6.43.43,9.21,1.07,1.71.21,2.36-.43,2.36-2.14v-27.64c0-1.71-.43-2.36-2.14-3-3.43-1.29-7.93-1.71-14.14-1.71-20.78,0-35.57,7.93-44.14,25.5-4.71,9.43-6.86,20.36-6.86,33.21v10.71h-19.28c-1.29,0-1.71.43-1.71,2.14v28.5c0,1.71.43,2.36,1.71,2.36v-.21h0v-.02Z"/><path class="cls-1" d="m130.88,134.91c0-1.3.43-2.38,2.17-2.38,13.66-.65,33.61-1.08,54.43-1.08,58.55,0,84.14,32.1,84.14,73.3,0,53.78-38.82,76.77-86.52,76.77-8.02,0-10.84-.43-16.48-.43v81.32c0,1.73-.65,2.39-2.38,2.39h-32.74c-1.74,0-2.38-.65-2.38-2.39v-227.48h-.22l-.02-.02Zm37.73,112.33c4.99.43,8.67.43,17.13.43,24.72,0,47.93-8.67,47.93-42.29,0-26.89-16.48-40.55-44.67-40.55-8.46,0-16.48.43-20.17.65v81.75h-.22Zm123.83-13.6h19.5v128.78c0,1.29.64,2.36,2.36,2.36h32.78c1.93,0,2.36-1.07,2.36-2.36v-128.78h27.21c1.71-.21,2.14-.64,2.14-2.36v-28.71c0-1.29-.43-1.71-2.14-1.71h-27.21v-10.71c0-16.71,6-25.28,18-25.28,2.57,0,6.43.43,9.21,1.07,1.71.21,2.36-.43,2.36-2.14v-27.64c0-1.71-.43-2.36-2.14-3-3.43-1.29-7.93-1.71-14.14-1.71-20.78,0-35.57,7.93-44.14,25.5-4.71,9.43-6.86,20.36-6.86,33.21v10.71h-19.28c-1.29,0-1.71.43-1.71,2.14v28.5c0,1.71.43,2.36,1.71,2.36v-.21h0v-.02Z"/></svg>